<svg width="110" height="30" viewBox="0 0 110 30" fill="none" xmlns="http://www.w3.org/2000/svg">
<path d="M5.568 7.968C4.56 8 3.784 8.384 3.24 9.12C2.712 9.856 2.448 11.128 2.448 12.936C2.448 13.528 2.504 13.944 2.616 14.184C2.728 14.408 2.784 14.536 2.784 14.568C1.92 14.568 1.272 14.392 0.84 14.04C0.424 13.672 0.216 13.072 0.216 12.24C0.216 11.104 0.496 10.072 1.056 9.144C1.616 8.2 2.504 7.44 3.72 6.864C4.952 6.288 6.512 6 8.4 6C8.784 6 9.296 6.04 9.936 6.12C11.088 6.232 11.904 6.288 12.384 6.288C13.232 6.288 13.952 6.192 14.544 6C14.496 6.144 14.408 6.464 14.28 6.96C14.152 7.44 13.92 7.856 13.584 8.208C13.264 8.544 12.824 8.768 12.264 8.88C11.32 8.88 10.2 8.728 8.904 8.424L7.896 13.2H11.4L11.016 14.976H7.512L5.568 24H2.112L5.568 7.968ZM14.5196 24.096C13.3356 24.096 12.3996 23.792 11.7116 23.184C11.0236 22.576 10.6796 21.616 10.6796 20.304C10.6796 19.216 10.9036 18.008 11.3516 16.68C11.7996 15.352 12.5196 14.208 13.5116 13.248C14.5036 12.272 15.7516 11.784 17.2556 11.784C19.3036 11.784 20.3276 13.064 20.3276 15.624V15.648C20.3756 15.664 20.4636 15.672 20.5916 15.672C21.1196 15.672 21.7276 15.536 22.4156 15.264C23.1036 14.976 23.7276 14.632 24.2876 14.232L24.5036 14.88C24.0396 15.376 23.4316 15.8 22.6796 16.152C21.9436 16.488 21.1356 16.728 20.2556 16.872C20.1276 18.328 19.7996 19.6 19.2716 20.688C18.7436 21.776 18.0636 22.616 17.2316 23.208C16.3996 23.8 15.4956 24.096 14.5196 24.096ZM15.4796 21.936C15.8636 21.936 16.2476 21.72 16.6316 21.288C17.0156 20.84 17.3516 20.24 17.6396 19.488C17.9276 18.72 18.1356 17.872 18.2636 16.944C17.8316 16.848 17.6156 16.512 17.6156 15.936C17.6156 15.28 17.8636 14.848 18.3596 14.64C18.3276 14.112 18.2476 13.752 18.1196 13.56C17.9916 13.352 17.7676 13.248 17.4476 13.248C16.9196 13.248 16.4076 13.632 15.9116 14.4C15.4156 15.168 15.0156 16.088 14.7116 17.16C14.4076 18.232 14.2556 19.176 14.2556 19.992C14.2556 20.76 14.3436 21.28 14.5196 21.552C14.6956 21.808 15.0156 21.936 15.4796 21.936ZM25.0665 24.096C23.8825 24.096 22.9465 23.792 22.2585 23.184C21.5705 22.576 21.2265 21.616 21.2265 20.304C21.2265 19.216 21.4505 18.008 21.8985 16.68C22.3465 15.352 23.0665 14.208 24.0585 13.248C25.0505 12.272 26.2985 11.784 27.8025 11.784C29.8505 11.784 30.8745 13.064 30.8745 15.624V15.648C30.9225 15.664 31.0105 15.672 31.1385 15.672C31.6665 15.672 32.2745 15.536 32.9625 15.264C33.6505 14.976 34.2745 14.632 34.8345 14.232L35.0505 14.88C34.5865 15.376 33.9785 15.8 33.2265 16.152C32.4905 16.488 31.6825 16.728 30.8025 16.872C30.6745 18.328 30.3465 19.6 29.8185 20.688C29.2905 21.776 28.6105 22.616 27.7785 23.208C26.9465 23.8 26.0425 24.096 25.0665 24.096ZM26.0265 21.936C26.4105 21.936 26.7945 21.72 27.1785 21.288C27.5625 20.84 27.8985 20.24 28.1865 19.488C28.4745 18.72 28.6825 17.872 28.8105 16.944C28.3785 16.848 28.1625 16.512 28.1625 15.936C28.1625 15.28 28.4105 14.848 28.9065 14.64C28.8745 14.112 28.7945 13.752 28.6665 13.56C28.5385 13.352 28.3145 13.248 27.9945 13.248C27.4665 13.248 26.9545 13.632 26.4585 14.4C25.9625 15.168 25.5625 16.088 25.2585 17.16C24.9545 18.232 24.8025 19.176 24.8025 19.992C24.8025 20.76 24.8905 21.28 25.0665 21.552C25.2425 21.808 25.5625 21.936 26.0265 21.936ZM34.9894 24.144C34.0774 24.144 33.3174 23.832 32.7094 23.208C32.1014 22.584 31.7974 21.608 31.7974 20.28C31.7974 19.096 32.0294 17.856 32.4934 16.56C32.9734 15.248 33.6774 14.144 34.6054 13.248C35.5494 12.336 36.6694 11.88 37.9654 11.88C38.6214 11.88 39.1094 11.992 39.4294 12.216C39.7494 12.44 39.9094 12.736 39.9094 13.104V13.2L41.0854 7.68L44.6374 7.2L41.8774 20.16C41.8134 20.4 41.7814 20.656 41.7814 20.928C41.7814 21.248 41.8534 21.48 41.9974 21.624C42.1574 21.752 42.4134 21.816 42.7654 21.816C43.2134 21.816 43.5974 21.624 43.9174 21.24C44.2534 20.856 44.5174 20.344 44.7094 19.704H45.7174C44.7414 22.568 43.1334 24 40.8934 24C40.2374 24 39.7014 23.824 39.2854 23.472C38.8854 23.12 38.6374 22.608 38.5414 21.936C38.1254 22.576 37.6214 23.104 37.0294 23.52C36.4534 23.936 35.7734 24.144 34.9894 24.144ZM36.5494 21.816C36.9334 21.816 37.3174 21.64 37.7014 21.288C38.1014 20.936 38.3734 20.448 38.5174 19.824V19.704L39.6934 14.208C39.5494 13.648 39.2214 13.368 38.7094 13.368C38.0694 13.368 37.4934 13.744 36.9814 14.496C36.4694 15.232 36.0694 16.128 35.7814 17.184C35.4934 18.224 35.3494 19.144 35.3494 19.944C35.3494 20.744 35.4614 21.256 35.6854 21.48C35.9254 21.704 36.2134 21.816 36.5494 21.816ZM48.7268 10.704C48.1988 10.704 47.7508 10.52 47.3828 10.152C47.0148 9.784 46.8308 9.336 46.8308 8.808C46.8308 8.28 47.0148 7.832 47.3828 7.464C47.7508 7.08 48.1988 6.888 48.7268 6.888C49.2548 6.888 49.7028 7.08 50.0708 7.464C50.4548 7.832 50.6468 8.28 50.6468 8.808C50.6468 9.336 50.4548 9.784 50.0708 10.152C49.7028 10.52 49.2548 10.704 48.7268 10.704ZM47.0948 24.144C46.3268 24.144 45.7028 23.904 45.2228 23.424C44.7588 22.944 44.5267 22.224 44.5267 21.264C44.5267 20.864 44.5907 20.344 44.7188 19.704L46.3508 12H49.8068L48.0788 20.16C48.0148 20.4 47.9828 20.656 47.9828 20.928C47.9828 21.248 48.0548 21.48 48.1988 21.624C48.3588 21.752 48.6148 21.816 48.9668 21.816C49.4308 21.816 49.8628 21.624 50.2628 21.24C50.6628 20.84 50.9508 20.328 51.1268 19.704H52.1348C51.5428 21.432 50.7828 22.608 49.8548 23.232C48.9268 23.84 48.0068 24.144 47.0948 24.144ZM54.5492 24.144C53.3652 24.144 52.4452 23.84 51.7892 23.232C51.1332 22.608 50.8052 21.64 50.8052 20.328C50.8052 19.224 51.0212 18.008 51.4532 16.68C51.8852 15.352 52.5892 14.208 53.5652 13.248C54.5412 12.272 55.7812 11.784 57.2852 11.784C59.0452 11.784 59.9252 12.552 59.9252 14.088C59.9252 14.984 59.6692 15.808 59.1572 16.56C58.6452 17.312 57.9652 17.92 57.1172 18.384C56.2692 18.832 55.3652 19.088 54.4052 19.152C54.3732 19.632 54.3572 19.952 54.3572 20.112C54.3572 20.896 54.4932 21.432 54.7652 21.72C55.0372 21.992 55.4772 22.128 56.0852 22.128C56.9492 22.128 57.6852 21.928 58.2932 21.528C58.9172 21.128 59.5972 20.52 60.3332 19.704H61.1492C59.3732 22.664 57.1732 24.144 54.5492 24.144ZM54.5972 18C55.1892 17.968 55.7492 17.76 56.2772 17.376C56.8212 16.992 57.2532 16.504 57.5732 15.912C57.9092 15.32 58.0772 14.696 58.0772 14.04C58.0772 13.384 57.8772 13.056 57.4772 13.056C56.9012 13.056 56.3332 13.56 55.7732 14.568C55.2292 15.576 54.8372 16.72 54.5972 18ZM62.7041 24.144C61.9361 24.144 61.3121 23.904 60.8321 23.424C60.3681 22.944 60.1361 22.224 60.1361 21.264C60.1361 20.864 60.2001 20.344 60.3281 19.704L62.8961 7.68L66.4481 7.2L63.6881 20.16C63.6241 20.4 63.5921 20.656 63.5921 20.928C63.5921 21.248 63.6641 21.48 63.8081 21.624C63.9681 21.752 64.2241 21.816 64.5761 21.816C65.0401 21.816 65.4721 21.624 65.8721 21.24C66.2721 20.84 66.5601 20.328 66.7361 19.704H67.7441C67.1521 21.432 66.3921 22.608 65.4641 23.232C64.5361 23.84 63.6161 24.144 62.7041 24.144ZM69.6066 24.144C68.6946 24.144 67.9346 23.832 67.3266 23.208C66.7186 22.584 66.4146 21.608 66.4146 20.28C66.4146 19.096 66.6466 17.856 67.1106 16.56C67.5906 15.248 68.2946 14.144 69.2226 13.248C70.1666 12.336 71.2866 11.88 72.5826 11.88C73.2386 11.88 73.7266 11.992 74.0466 12.216C74.3666 12.44 74.5266 12.736 74.5266 13.104V13.272L74.7906 12H78.2466L76.5186 20.16C76.4546 20.4 76.4226 20.656 76.4226 20.928C76.4226 21.616 76.7506 21.96 77.4066 21.96C77.8546 21.96 78.2386 21.752 78.5586 21.336C78.8946 20.92 79.1586 20.376 79.3506 19.704H80.3586C79.7666 21.432 79.0306 22.608 78.1506 23.232C77.2866 23.84 76.4146 24.144 75.5346 24.144C74.8626 24.144 74.3186 23.96 73.9026 23.592C73.5026 23.208 73.2626 22.656 73.1826 21.936C72.7186 22.592 72.1986 23.128 71.6226 23.544C71.0626 23.944 70.3906 24.144 69.6066 24.144ZM71.1666 21.816C71.5666 21.816 71.9586 21.632 72.3426 21.264C72.7426 20.88 73.0146 20.36 73.1586 19.704L74.3106 14.28C74.3106 14.072 74.2306 13.872 74.0706 13.68C73.9106 13.472 73.6626 13.368 73.3266 13.368C72.6866 13.368 72.1106 13.744 71.5986 14.496C71.0866 15.232 70.6866 16.128 70.3986 17.184C70.1106 18.224 69.9666 19.144 69.9666 19.944C69.9666 20.744 70.0786 21.256 70.3026 21.48C70.5426 21.704 70.8306 21.816 71.1666 21.816ZM88.0234 24.144C87.0474 24.144 86.3274 23.888 85.8634 23.376C85.4154 22.848 85.1914 22.2 85.1914 21.432C85.1914 21.096 85.2314 20.72 85.3114 20.304C85.3914 19.872 85.4714 19.456 85.5514 19.056C85.6474 18.656 85.7114 18.4 85.7434 18.288C85.8714 17.728 85.9914 17.176 86.1034 16.632C86.2154 16.088 86.2714 15.648 86.2714 15.312C86.2714 14.496 85.9834 14.088 85.4074 14.088C84.9914 14.088 84.6234 14.296 84.3034 14.712C83.9834 15.112 83.7274 15.64 83.5354 16.296L81.9034 24H78.4474L80.9914 12H84.4474L84.1834 13.248C84.9834 12.352 85.9194 11.904 86.9914 11.904C87.8074 11.904 88.4554 12.128 88.9354 12.576C89.4154 13.024 89.6554 13.704 89.6554 14.616C89.6554 15.08 89.5994 15.6 89.4874 16.176C89.3754 16.736 89.2154 17.424 89.0074 18.24C88.8794 18.736 88.7594 19.224 88.6474 19.704C88.5514 20.168 88.5034 20.536 88.5034 20.808C88.5034 21.128 88.5754 21.376 88.7194 21.552C88.8634 21.728 89.1114 21.816 89.4634 21.816C89.9434 21.816 90.3274 21.648 90.6154 21.312C90.9034 20.96 91.1914 20.424 91.4794 19.704H92.4874C91.8954 21.464 91.2074 22.648 90.4234 23.256C89.6554 23.848 88.8554 24.144 88.0234 24.144ZM94.3566 24.144C93.4446 24.144 92.6846 23.832 92.0766 23.208C91.4686 22.584 91.1646 21.608 91.1646 20.28C91.1646 19.096 91.3966 17.856 91.8606 16.56C92.3406 15.248 93.0446 14.144 93.9726 13.248C94.9166 12.336 96.0366 11.88 97.3326 11.88C97.9886 11.88 98.4766 11.992 98.7966 12.216C99.1166 12.44 99.2766 12.736 99.2766 13.104V13.2L100.453 7.68L104.005 7.2L101.245 20.16C101.181 20.4 101.149 20.632 101.149 20.856C101.149 21.496 101.477 21.816 102.133 21.816C102.421 21.816 102.677 21.768 102.901 21.672C102.837 22.472 102.549 23.088 102.037 23.52C101.541 23.936 100.949 24.144 100.261 24.144C99.6206 24.144 99.0766 23.984 98.6286 23.664C98.1966 23.328 97.9086 22.824 97.7646 22.152C96.8046 23.48 95.6686 24.144 94.3566 24.144ZM95.9166 21.816C96.2686 21.816 96.6206 21.664 96.9726 21.36C97.3406 21.056 97.6126 20.632 97.7886 20.088L97.8846 19.704L99.0606 14.208C98.9166 13.648 98.5886 13.368 98.0766 13.368C97.4366 13.368 96.8606 13.744 96.3486 14.496C95.8366 15.232 95.4366 16.128 95.1486 17.184C94.8606 18.224 94.7166 19.144 94.7166 19.944C94.7166 20.744 94.8286 21.256 95.0526 21.48C95.2926 21.704 95.5806 21.816 95.9166 21.816Z" fill="black"/>
<path d="M105.531 24.096C105.003 24.096 104.555 23.912 104.187 23.544C103.819 23.176 103.635 22.728 103.635 22.2C103.635 21.672 103.819 21.224 104.187 20.856C104.555 20.472 105.003 20.28 105.531 20.28C106.059 20.28 106.507 20.472 106.875 20.856C107.259 21.224 107.451 21.672 107.451 22.2C107.451 22.728 107.259 23.176 106.875 23.544C106.507 23.912 106.059 24.096 105.531 24.096Z" fill="#FF7426"/>
</svg>
